<svg width="557" height="215" viewBox="0 0 557 215" fill="none" xmlns="http://www.w3.org/2000/svg">
<path opacity="0.4" fill-rule="evenodd" clip-rule="evenodd" d="M545.136 50C545.136 58.4916 542.346 66.4888 537.423 73.4927C549.415 81.3771 557 93.0165 557 106C557 129.748 531.623 149 500.318 149C487.935 149 476.479 145.988 467.155 140.876C450.73 157.925 424.172 169 394.205 169C359.512 169 329.389 154.157 314.268 132.386C310.893 132.79 307.433 133 303.909 133C267.509 133 238 110.614 238 83C238 55.3858 267.509 33 303.909 33C311.941 33 319.637 34.0898 326.754 36.0851C334.701 18.0214 357.176 5 383.659 5C400.832 5 416.319 10.4751 427.253 19.2498C439.315 7.53302 458.111 0 479.227 0C515.628 0 545.136 22.3858 545.136 50Z" fill="url(#paint0_linear_45_70)"/>
<path opacity="0.37" fill-rule="evenodd" clip-rule="evenodd" d="M167.198 150.219C167.198 154.842 165.679 159.195 162.999 163.008C169.528 167.3 173.657 173.636 173.657 180.704C173.657 193.632 159.842 204.112 142.8 204.112C136.059 204.112 129.823 202.472 124.747 199.69C115.806 208.971 101.348 215 85.0344 215C66.1484 215 49.7501 206.92 41.5185 195.068C39.6814 195.288 37.798 195.402 35.8795 195.402C16.0638 195.402 0 183.216 0 168.183C0 153.151 16.0638 140.964 35.8795 140.964C40.2517 140.964 44.4412 141.558 48.3159 142.644C52.6422 132.81 64.8767 125.722 79.2937 125.722C88.6422 125.722 97.073 128.702 103.025 133.479C109.592 127.101 119.824 123 131.319 123C151.135 123 167.198 135.186 167.198 150.219Z" fill="url(#paint1_linear_45_70)"/>
<defs>
<linearGradient id="paint0_linear_45_70" x1="397.5" y1="0" x2="397.5" y2="169" gradientUnits="userSpaceOnUse">
<stop stop-color="#FBF4EE"/>
<stop offset="1" stop-color="#F6C2C6"/>
</linearGradient>
<linearGradient id="paint1_linear_45_70" x1="86.8284" y1="123" x2="86.8284" y2="215" gradientUnits="userSpaceOnUse">
<stop stop-color="#FBF4EE"/>
<stop offset="1" stop-color="#F6C2C6"/>
</linearGradient>
</defs>
</svg>
