<svg width="557" height="167" viewBox="0 0 557 167" fill="none" xmlns="http://www.w3.org/2000/svg">
    <g clip-path="url(#clip0_50_652)">
        <path opacity="0.4" fill-rule="evenodd" clip-rule="evenodd"
            d="M545.136 2C545.136 10.4916 542.346 18.4888 537.423 25.4927C549.415 33.3771 557 45.0165 557 58C557 81.7482 531.623 101 500.318 101C487.935 101 476.479 97.9875 467.155 92.8758C450.73 109.925 424.172 121 394.205 121C359.512 121 329.389 106.157 314.268 84.386C310.893 84.7901 307.433 85 303.909 85C267.509 85 238 62.6142 238 35C238 7.38576 267.509 -15 303.909 -15C311.941 -15 319.637 -13.9102 326.754 -11.9149C334.701 -29.9786 357.176 -43 383.659 -43C400.832 -43 416.319 -37.5249 427.253 -28.7502C439.315 -40.467 458.111 -48 479.227 -48C515.628 -48 545.136 -25.6142 545.136 2Z"
            fill="url(#paint0_linear_50_652)" />
        <path opacity="0.37" fill-rule="evenodd" clip-rule="evenodd"
            d="M167.198 102.219C167.198 106.842 165.679 111.195 162.999 115.008C169.528 119.3 173.657 125.636 173.657 132.704C173.657 145.632 159.842 156.112 142.8 156.112C136.059 156.112 129.823 154.472 124.747 151.69C115.806 160.971 101.348 167 85.0344 167C66.1484 167 49.7501 158.92 41.5185 147.068C39.6814 147.288 37.798 147.402 35.8795 147.402C16.0638 147.402 0 135.216 0 120.183C0 105.151 16.0638 92.9645 35.8795 92.9645C40.2517 92.9645 44.4412 93.5578 48.3159 94.644C52.6422 84.8105 64.8767 77.7219 79.2937 77.7219C88.6422 77.7219 97.073 80.7024 103.025 85.4792C109.592 79.1008 119.824 75 131.319 75C151.135 75 167.198 87.1863 167.198 102.219Z"
            fill="url(#paint1_linear_50_652)" />
    </g>
    <defs>
        <linearGradient id="paint0_linear_50_652" x1="397.5" y1="-48" x2="397.5" y2="121"
            gradientUnits="userSpaceOnUse">
            <stop stop-color="#FBF4EE" />
            <stop offset="1" stop-color="#F6C2C6" />
        </linearGradient>
        <linearGradient id="paint1_linear_50_652" x1="86.8284" y1="75" x2="86.8284" y2="167"
            gradientUnits="userSpaceOnUse">
            <stop stop-color="#FBF4EE" />
            <stop offset="1" stop-color="#F6C2C6" />
        </linearGradient>
        <clipPath id="clip0_50_652">
            <rect width="557" height="167" fill="white" />
        </clipPath>
    </defs>
</svg>