<svg width="488" height="793" viewBox="0 0 488 793" fill="none" xmlns="http://www.w3.org/2000/svg">
<g opacity="0.4">
<path fill-rule="evenodd" clip-rule="evenodd" d="M169.396 0C169.396 0 190.669 37.3042 179.655 71.2262C169.608 102.172 136.164 119.612 130.372 122.435C136.464 134.811 143.347 149.312 150.757 165.792C151.773 168.053 152.8 170.351 153.836 172.686C150.038 159.234 147.696 141.823 153.085 125.222C164.098 91.3005 203.227 73.6063 203.227 73.6063C203.227 73.6063 224.499 110.91 213.486 144.832C203.317 176.155 169.176 193.642 164.004 196.138C171.308 213.374 178.932 232.22 186.668 252.561C183.644 238.577 182.24 220.074 189.271 203.141C202.948 170.202 243.36 155.677 243.36 155.677C243.36 155.677 261.598 194.555 247.921 227.493C235.538 257.317 201.236 272.045 194.86 274.564C203.213 297.492 211.612 322.092 219.801 348.223C217.341 333.583 216.42 312.239 226.074 293.873C242.669 262.304 284.227 251.486 284.227 251.486C284.227 251.486 298.88 291.852 282.285 323.421C267.208 352.104 231.524 363.656 225.124 365.529C230.327 382.77 235.42 400.631 240.336 419.077C241.238 422.464 242.125 425.839 242.997 429.2C241.066 414.508 240.942 393.427 251.057 375.581C268.645 344.554 310.525 335.059 310.525 335.059C310.525 335.059 323.891 375.869 306.304 406.897C290.085 435.511 253.204 445.812 247.565 447.241C253.472 471.155 258.607 494.319 263.07 516.566C261.796 501.771 262.592 480.369 273.732 462.81C292.838 432.694 335.138 425.291 335.138 425.291C335.138 425.291 346.461 466.714 327.355 496.83C309.546 524.902 271.584 533.24 266.513 534.242C270.983 557.889 274.689 580.399 277.763 601.557C277.993 586.953 280.893 567.432 292.484 551.918C313.831 523.348 356.573 519.192 356.573 519.192C356.573 519.192 364.704 561.358 343.357 589.929C324.296 615.439 288.179 621.485 280.66 622.488C283.667 645.34 285.92 666.374 287.605 685.28C290.581 718.658 291.789 745.412 292.253 763.841C292.485 773.056 292.531 780.19 292.518 785.031C292.512 787.451 292.491 789.299 292.472 790.546C292.462 791.17 292.453 791.643 292.446 791.964L292.441 792.181L292.437 792.329L292.435 792.425L292.434 792.451L292.434 792.458C292.434 792.461 292.434 792.462 287.183 792.315C281.933 792.169 281.933 792.169 281.933 792.169L281.933 792.165L281.933 792.147L281.935 792.068C281.937 791.995 281.94 791.884 281.943 791.735C281.95 791.436 281.959 790.984 281.968 790.383C281.987 789.18 282.007 787.378 282.013 785.004C282.025 780.256 281.981 773.219 281.751 764.106C281.293 745.878 280.096 719.348 277.142 686.213C275.472 667.48 273.24 646.638 270.263 623.994C262.32 625.21 226.398 629.399 201.12 610.511C172.549 589.164 168.393 546.422 168.393 546.422C168.393 546.422 210.559 538.292 239.13 559.639C254.751 571.31 263.074 589.378 267.409 603.358C264.364 582.363 260.69 560.025 256.259 536.555C247.037 538.598 212.916 544.578 187.102 528.201C156.986 509.095 149.583 466.795 149.583 466.795C149.583 466.795 191.006 455.472 221.122 474.578C236.782 484.513 246.301 500.72 251.831 513.99C247.639 493.406 242.868 472.051 237.44 450.056C228.591 452.502 194.547 460.364 167.782 445.193C136.755 427.606 127.26 385.726 127.26 385.726C127.26 385.726 168.07 372.36 199.097 389.947C215.322 399.143 225.659 414.983 231.829 428.003C231.287 425.935 230.739 423.861 230.185 421.782C225.308 403.483 220.256 385.762 215.095 368.657C206.776 371.275 172.568 380.557 145.047 366.09C113.478 349.495 102.66 307.936 102.66 307.936C102.66 307.936 143.026 293.283 174.595 309.878C190.778 318.385 201.508 333.452 208.123 346.117C200.56 322.255 192.833 299.707 185.145 278.587C177.195 281.911 143.877 294.329 115.095 282.378C82.1566 268.701 67.6311 228.289 67.6311 228.289C67.6311 228.289 106.509 210.051 139.448 223.728C158.191 231.511 170.973 247.951 178.508 260.675C170.357 239.06 162.316 219.102 154.627 200.936C146.385 205.132 114.662 219.594 85.4472 210.109C51.5252 199.096 33.831 159.967 33.831 159.967C33.831 159.967 71.1352 138.695 105.057 149.708C124.683 156.08 138.877 171.863 147.355 184.034C145.259 179.242 143.198 174.597 141.176 170.1C133.847 153.8 127.041 139.457 121.017 127.217C113.136 131.259 81.0987 146.075 51.6163 136.503C17.6943 125.489 3.05176e-05 86.361 3.05176e-05 86.361C3.05176e-05 86.361 37.3042 65.0885 71.2263 76.1018C88.5713 81.7331 101.674 94.7151 110.337 106.058C109.421 104.29 108.537 102.599 107.689 100.985C103.527 93.0681 100.209 87.0267 97.9368 82.9735C96.8007 80.9468 95.926 79.4173 95.338 78.3989C95.0441 77.8897 94.8217 77.5083 94.6742 77.2564C94.6005 77.1305 94.5455 77.0369 94.5095 76.976L94.47 76.909L94.4611 76.8939L94.4593 76.891L94.6748 76.763C95.0535 76.5383 96.0976 75.9186 98.976 74.2098C103.493 71.5285 103.493 71.5299 103.495 71.5318L103.498 71.5381L103.511 71.5599L103.559 71.6404L103.614 71.7336L103.74 71.9482C103.898 72.2184 104.131 72.6184 104.436 73.1464C105.045 74.2023 105.942 75.7704 107.1 77.8364C109.417 81.9685 112.78 88.0929 116.988 96.0973C118.637 99.2349 120.416 102.661 122.313 106.37C117.395 92.3565 112.828 71.4105 119.254 51.6162C130.268 17.6942 169.396 0 169.396 0Z" fill="url(#paint0_linear_45_9)"/>
<path fill-rule="evenodd" clip-rule="evenodd" d="M372.453 233.612C372.453 233.612 357.999 258.959 365.482 282.008C372.308 303.031 395.027 314.881 398.967 316.801C394.827 325.21 390.15 335.064 385.116 346.261C384.427 347.793 383.732 349.35 383.03 350.932C385.608 341.793 387.196 329.97 383.536 318.696C376.053 295.647 349.467 283.624 349.467 283.624C349.467 283.624 335.013 308.971 342.496 332.02C349.404 353.299 372.595 365.18 376.116 366.879C371.154 378.586 365.976 391.386 360.722 405.201C362.774 395.702 363.724 383.137 358.949 371.638C349.656 349.258 322.198 339.388 322.198 339.388C322.198 339.388 309.806 365.805 319.099 388.185C327.512 408.445 350.811 418.453 355.15 420.167C349.476 435.74 343.771 452.448 338.209 470.196C339.878 460.249 340.499 445.758 333.944 433.288C322.668 411.838 294.431 404.488 294.431 404.488C294.431 404.488 284.475 431.915 295.75 453.365C305.992 472.849 330.23 480.699 334.586 481.974C331.051 493.689 327.59 505.825 324.251 518.358C323.639 520.654 323.037 522.941 322.447 525.219C323.756 515.237 323.836 500.924 316.968 488.806C305.018 467.724 276.562 461.273 276.562 461.273C276.562 461.273 267.48 489.001 279.43 510.083C290.448 529.522 315.5 536.522 319.338 537.495C315.328 553.73 311.842 569.456 308.812 584.56C309.672 574.508 309.123 559.988 301.564 548.073C288.582 527.611 259.841 522.581 259.841 522.581C259.841 522.581 252.147 550.726 265.129 571.189C277.224 590.254 303.002 595.923 306.464 596.608C303.429 612.664 300.912 627.948 298.825 642.316C298.665 632.397 296.69 619.149 288.823 608.619C274.318 589.207 245.277 586.383 245.277 586.383C245.277 586.383 239.752 615.033 254.257 634.446C267.204 651.774 291.732 655.885 296.852 656.568C294.809 672.095 293.278 686.387 292.133 699.233C290.111 721.912 289.29 740.09 288.975 752.612C288.817 758.873 288.786 763.721 288.795 767.01C288.799 768.654 288.813 769.91 288.826 770.757C288.833 771.181 288.839 771.503 288.844 771.72C288.846 771.829 288.848 771.912 288.85 771.969L288.851 772.034L288.852 772.051L288.852 772.056C288.852 772.058 288.852 772.059 292.419 771.959C295.987 771.86 295.987 771.86 295.987 771.86L295.987 771.857L295.987 771.845L295.985 771.791L295.983 771.705L295.98 771.565C295.978 771.472 295.975 771.357 295.973 771.222L295.969 770.997L295.966 770.803L295.963 770.646C295.95 769.829 295.936 768.604 295.932 766.991C295.924 763.765 295.954 758.984 296.11 752.792C296.422 740.407 297.235 722.381 299.242 699.867C300.377 687.138 301.894 672.977 303.916 657.591C309.303 658.417 333.72 661.268 350.901 648.431C370.314 633.926 373.138 604.885 373.138 604.885C373.138 604.885 344.487 599.361 325.075 613.865C314.45 621.804 308.794 634.097 305.851 643.6C307.921 629.326 310.419 614.138 313.431 598.179C319.691 599.566 342.882 603.634 360.425 592.504C380.887 579.522 385.918 550.781 385.918 550.781C385.918 550.781 357.772 543.087 337.31 556.069C326.661 562.825 320.192 573.849 316.436 582.869C319.285 568.877 322.528 554.36 326.218 539.408C332.227 541.069 355.362 546.414 373.55 536.104C394.632 524.154 401.083 495.698 401.083 495.698C401.083 495.698 373.354 486.617 352.273 498.566C341.244 504.818 334.219 515.587 330.027 524.435C330.397 523.026 330.77 521.613 331.148 520.196C334.461 507.763 337.894 495.722 341.401 484.1C347.049 485.877 370.296 492.187 388.998 482.356C410.448 471.081 417.798 442.843 417.798 442.843C417.798 442.843 390.371 432.887 368.921 444.163C357.92 449.946 350.627 460.191 346.133 468.8C351.274 452.581 356.525 437.255 361.751 422.9C367.149 425.158 389.79 433.598 409.349 425.477C431.73 416.184 441.599 388.726 441.599 388.726C441.599 388.726 415.183 376.334 392.803 385.627C380.061 390.917 371.374 402.096 366.256 410.743C371.795 396.051 377.261 382.486 382.487 370.139C388.084 372.989 409.641 382.818 429.493 376.373C452.542 368.89 464.565 342.303 464.565 342.303C464.565 342.303 439.218 327.849 416.169 335.333C402.83 339.663 393.184 350.393 387.424 358.664C388.849 355.405 390.251 352.246 391.626 349.188C396.606 338.113 401.23 328.367 405.323 320.05C410.676 322.795 432.446 332.865 452.48 326.36C475.528 318.877 487.551 292.291 487.551 292.291C487.551 292.291 462.204 277.837 439.156 285.32C427.367 289.148 418.462 297.973 412.576 305.682C413.2 304.478 413.801 303.326 414.379 302.228C417.207 296.848 419.461 292.743 421.005 289.989C421.777 288.612 422.371 287.573 422.771 286.881C422.97 286.535 423.122 286.276 423.222 286.105C423.272 286.019 423.309 285.956 423.334 285.914L423.361 285.869L423.367 285.859L423.368 285.857C423.368 285.856 423.368 285.857 420.299 284.035C417.23 282.213 417.229 282.214 417.229 282.215L417.226 282.219L417.217 282.234L417.185 282.289L417.118 282.403L417.062 282.498C416.955 282.682 416.796 282.954 416.589 283.312C416.175 284.03 415.566 285.095 414.779 286.499C413.205 289.307 410.92 293.468 408.061 298.907C406.942 301.035 405.735 303.359 404.448 305.875C407.789 296.353 410.887 282.127 406.522 268.683C399.039 245.635 372.453 233.612 372.453 233.612Z" fill="url(#paint1_linear_45_9)"/>
</g>
<defs>
<linearGradient id="paint0_linear_45_9" x1="179.047" y1="0" x2="179.047" y2="792.459" gradientUnits="userSpaceOnUse">
<stop stop-color="#FBF4EE"/>
<stop offset="1" stop-color="#F6C2C6"/>
</linearGradient>
<linearGradient id="paint1_linear_45_9" x1="365.897" y1="233.612" x2="365.897" y2="772.057" gradientUnits="userSpaceOnUse">
<stop stop-color="#FBF4EE"/>
<stop offset="1" stop-color="#F6C2C6"/>
</linearGradient>
</defs>
</svg>
