<svg width="236" height="124" viewBox="0 0 236 124" fill="none" xmlns="http://www.w3.org/2000/svg">
    <path fill-rule="evenodd" clip-rule="evenodd"
        d="M176.739 46.7933C176.739 51.2746 175.266 55.4949 172.668 59.1911C178.997 63.3519 182.999 69.4943 182.999 76.346C182.999 88.8786 169.607 99.0383 153.087 99.0383C146.552 99.0383 140.507 97.4486 135.586 94.7511C126.918 103.748 112.903 109.593 97.0882 109.593C78.7799 109.593 62.8831 101.76 54.9033 90.2706C53.1223 90.4839 51.2964 90.5947 49.4363 90.5947C30.2267 90.5947 14.6543 78.7811 14.6543 64.2083C14.6543 49.6355 30.2267 37.822 49.4363 37.822C53.675 37.822 57.7366 38.3972 61.4929 39.4503C65.6869 29.9175 77.5472 23.0456 91.5233 23.0456C100.586 23.0456 108.758 25.9349 114.528 30.5654C120.894 24.3823 130.813 20.407 141.957 20.407C161.166 20.407 176.739 32.2206 176.739 46.7933Z"
        fill="#F8B9BD" />
    <path fill-rule="evenodd" clip-rule="evenodd"
        d="M179.198 37.2189C179.198 41.8416 177.679 46.1951 174.999 50.0079C181.528 54.2999 185.657 60.6362 185.657 67.7041C185.657 80.6322 171.842 91.1124 154.8 91.1124C148.059 91.1124 141.823 89.4725 136.747 86.6898C127.806 95.971 113.348 102 97.0344 102C78.1484 102 61.7501 93.92 53.5185 82.0681C51.6814 82.2881 49.798 82.4024 47.8795 82.4024C28.0638 82.4024 12 70.216 12 55.1834C12 40.1508 28.0638 27.9645 47.8795 27.9645C52.2517 27.9645 56.4412 28.5578 60.3159 29.644C64.6422 19.8105 76.8767 12.7219 91.2937 12.7219C100.642 12.7219 109.073 15.7024 115.025 20.4792C121.592 14.1008 131.824 10 143.319 10C163.135 10 179.198 22.1863 179.198 37.2189Z"
        fill="#F8DAD9" />
    <path
        d="M223.775 10.9299C224.143 10.4577 224.857 10.4577 225.225 10.9299L228.663 15.3371C228.77 15.4733 228.912 15.5769 229.075 15.6359L234.329 17.5438C234.892 17.7482 235.112 18.4273 234.777 18.9235L231.648 23.5552C231.551 23.6984 231.497 23.866 231.491 24.0388L231.3 29.625C231.279 30.2235 230.702 30.6433 230.126 30.4778L224.754 28.9331C224.588 28.8853 224.412 28.8853 224.246 28.9331L218.874 30.4778C218.298 30.6433 217.721 30.2235 217.7 29.625L217.509 24.0388C217.503 23.866 217.449 23.6984 217.352 23.5552L214.223 18.9235C213.888 18.4273 214.108 17.7482 214.671 17.5438L219.925 15.6359C220.088 15.5769 220.23 15.4733 220.337 15.3371L223.775 10.9299Z"
        fill="#FFD600" />
    <path
        d="M18.7385 85.6172C19.379 84.796 20.621 84.796 21.2615 85.6172L27.2407 93.2818C27.4256 93.5189 27.6735 93.699 27.9561 93.8016L37.0933 97.1196C38.0722 97.4751 38.456 98.6562 37.8729 99.5192L32.4311 107.574C32.2628 107.823 32.1681 108.115 32.1578 108.415L31.8258 118.13C31.7902 119.171 30.7855 119.901 29.7845 119.614L20.4422 116.927C20.1532 116.844 19.8468 116.844 19.5578 116.927L10.2155 119.614C9.21455 119.901 8.20981 119.171 8.17424 118.13L7.84219 108.415C7.83192 108.115 7.73722 107.823 7.56892 107.574L2.12706 99.5192C1.54403 98.6562 1.92781 97.4751 2.90674 97.1196L12.0439 93.8016C12.3265 93.699 12.5744 93.5189 12.7593 93.2818L18.7385 85.6172Z"
        fill="#FFD600" />
    <path
        d="M201.183 0.584246C201.32 0.332897 201.68 0.332898 201.817 0.584246L202.815 2.42644C202.866 2.52214 202.959 2.58925 203.066 2.60899L205.126 2.98893C205.407 3.04077 205.519 3.38382 205.322 3.591L203.878 5.10949C203.803 5.18837 203.768 5.29695 203.782 5.40485L204.058 7.48186C204.095 7.76525 203.803 7.97727 203.546 7.85396L201.655 6.95024C201.557 6.90329 201.443 6.90329 201.345 6.95024L199.454 7.85396C199.197 7.97727 198.905 7.76525 198.942 7.48186L199.218 5.40485C199.232 5.29695 199.197 5.18837 199.122 5.10949L197.678 3.591C197.481 3.38382 197.593 3.04077 197.874 2.98893L199.934 2.60899C200.041 2.58925 200.134 2.52214 200.185 2.42644L201.183 0.584246Z"
        fill="#FFD600" />
</svg>