<svg width="231" height="78" viewBox="0 0 231 78" fill="none" xmlns="http://www.w3.org/2000/svg">
    <mask id="mask0_42_27" style="mask-type:alpha" maskUnits="userSpaceOnUse" x="0" y="0" width="266" height="124">
        <path fill-rule="evenodd" clip-rule="evenodd"
            d="M120.351 96.7811C120.351 92.1584 119.258 87.8049 117.329 83.9922C122.028 79.7001 125 73.3638 125 66.2959C125 53.3678 115.056 42.8876 102.789 42.8876C97.9369 42.8876 93.448 44.5275 89.7942 47.3102C83.3583 38.029 72.9516 32 61.2087 32C47.6143 32 35.8107 40.08 29.8855 51.9319C28.5631 51.7119 27.2074 51.5976 25.8264 51.5976C11.5629 51.5976 0 63.784 0 78.8166C0 93.8492 11.5629 106.036 25.8264 106.036C28.9736 106.036 31.9893 105.442 34.7783 104.356C37.8924 114.19 46.6989 121.278 57.0764 121.278C63.8055 121.278 69.8741 118.298 74.1585 113.521C78.8851 119.899 86.2506 124 94.5248 124C108.788 124 120.351 111.814 120.351 96.7811Z"
            fill="url(#paint0_radial_42_27)" />
        <path fill-rule="evenodd" clip-rule="evenodd"
            d="M258.659 86.9615C258.659 80.7562 257.168 74.9122 254.536 69.794C260.946 64.0323 265 55.5265 265 46.0385C265 28.684 251.436 14.6154 234.705 14.6154C228.086 14.6154 221.963 16.8168 216.98 20.5522C208.201 8.09328 194.006 2.28882e-05 177.989 2.28882e-05C159.446 2.28882e-05 143.346 10.8466 135.264 26.7564C133.46 26.4611 131.611 26.3077 129.727 26.3077C110.272 26.3077 94.5 42.6665 94.5 62.8462C94.5 83.0258 110.272 99.3846 129.727 99.3846C134.02 99.3846 138.133 98.5883 141.937 97.1302C146.185 110.331 158.197 119.846 172.352 119.846C181.531 119.846 189.808 115.845 195.652 109.433C202.099 117.995 212.146 123.5 223.432 123.5C242.887 123.5 258.659 107.141 258.659 86.9615Z"
            fill="url(#paint1_radial_42_27)" />
    </mask>
    <g mask="url(#mask0_42_27)">
        <rect width="231" height="78" fill="white" />
    </g>
    <defs>
        <radialGradient id="paint0_radial_42_27" cx="0" cy="0" r="1" gradientUnits="userSpaceOnUse"
            gradientTransform="translate(63 65.5) rotate(-155.659) scale(69.1466 93.9492)">
            <stop stop-color="white" stop-opacity="0" />
            <stop offset="1" stop-color="white" stop-opacity="0.53" />
        </radialGradient>
        <radialGradient id="paint1_radial_42_27" cx="0" cy="0" r="1" gradientUnits="userSpaceOnUse"
            gradientTransform="translate(180.432 44.9701) rotate(-156.001) scale(94.0638 126.455)">
            <stop stop-color="white" stop-opacity="0" />
            <stop offset="1" stop-color="white" stop-opacity="0.53" />
        </radialGradient>
    </defs>
</svg>