<svg width="320" height="320" viewBox="0 0 320 320" fill="none" xmlns="http://www.w3.org/2000/svg">
    <g clip-path="url(#clip0_44_2)">
        <path
            d="M243 79V18.338C243 12.684 246.448 8.92401 249.946 7.13401L251.36 6.41001C255.532 4.27401 260.764 5.14801 264.078 8.46201L268.048 12.432C270.746 15.13 274.518 16.468 278.328 16.688C303 16.688 303 -20.322 278.328 -20.322M81.5 78.998V18.34C81.5 12.686 78.052 8.92601 74.554 7.13601L73.14 6.41201C68.968 4.27601 63.736 5.15001 60.422 8.46401L56.452 12.434C53.754 15.132 49.98 16.47 46.172 16.69C21.5 16.69 21.5 -20.32 46.172 -20.32M339.322 202.176C339.322 177.502 302.312 177.502 302.312 202.176C302.532 205.984 303.872 209.756 306.568 212.454L310.538 216.424C313.852 219.738 314.726 224.97 312.59 229.144L311.866 230.556C310.076 234.056 306.316 237.504 300.662 237.504L240.002 237.502M339.322 111.33C339.322 136.002 302.312 136.002 302.312 111.33C302.532 107.522 303.872 103.748 306.568 101.05L310.538 97.08C313.852 93.766 314.726 88.534 312.59 84.362L311.866 82.948C310.076 79.45 306.316 76 300.662 76.002H240.002M278.326 336.69C303 336.69 303 299.68 278.326 299.68C275.064 299.68 270.346 301.64 268.048 303.936L264.078 307.906C260.766 311.218 255.53 312.094 251.358 309.96L249.946 309.236C245.774 307.098 242.998 302.72 242.998 298.032V229.428L243 176.972C243 172.284 240.146 168.056 236.054 165.768L234.64 165.046C232.553 164.1 230.233 163.791 227.971 164.156C225.709 164.52 223.604 165.544 221.92 167.098L217.952 171.068C215.664 173.372 210.936 175.324 207.672 175.324C183 175.324 183 138.314 207.672 138.314C211.48 138.534 215.102 140.034 217.952 142.57L221.922 146.54C223.603 148.098 225.708 149.124 227.971 149.489C230.234 149.854 232.554 149.542 234.64 148.592L236.054 147.868C238.628 144.898 243 142.318 243 136.664V76.004M46.172 336.686C21.5 336.686 21.5 299.676 46.172 299.676C49.436 299.676 54.156 301.636 56.452 303.932L60.422 307.902C63.734 311.214 68.97 312.09 73.14 309.956L74.554 309.232C78.726 307.094 81.502 302.716 81.502 298.028L81.5 229.424V176.97C81.5 172.282 84.274 167.904 88.446 165.766L89.86 165.044C94.03 162.908 99.266 163.784 102.578 167.096L106.548 171.066C108.844 173.362 113.564 175.322 116.828 175.322C141.5 175.322 141.5 138.312 116.828 138.312C113.018 138.532 109.246 139.872 106.548 142.568L102.578 146.538C99.264 149.852 94.032 150.726 89.858 148.59L88.446 147.866C84.946 146.076 81.498 142.316 81.498 136.662V76.002M242.998 237.5H182.34C176.686 237.5 172.926 240.948 171.136 244.446L170.412 245.86C168.276 250.032 169.15 255.264 172.464 258.578L176.434 262.548C179.132 265.246 180.47 269.02 180.69 272.828C180.69 297.5 143.68 297.5 143.68 272.828C143.68 269.564 145.64 264.844 147.936 262.548L151.906 258.578C155.218 255.266 156.094 250.03 153.958 245.86L153.236 244.446C151.098 240.274 146.72 237.498 142.032 237.5H20.972C16.284 237.5 11.906 234.726 9.76801 230.554L9.04401 229.14C6.91001 224.97 7.78401 219.734 11.098 216.422L15.068 212.452C17.364 210.156 19.324 205.436 19.324 202.172C19.324 177.5 -17.686 177.5 -17.686 202.172M243 76H182.338C176.684 76 172.924 72.552 171.134 69.054L170.41 67.64C168.274 63.468 169.148 58.236 172.462 54.922L176.432 50.952C179.13 48.254 180.468 44.482 180.688 40.672C180.688 16 143.68 16 143.68 40.674C143.68 43.938 145.634 48.662 147.936 50.954C149.262 52.274 150.622 53.564 151.906 54.924C155.122 58.33 155.912 63.384 153.958 67.644C153.738 68.124 153.492 68.592 153.236 69.056C150.96 73.154 146.718 76 142.03 76H73.424H20.97C16.282 76 11.904 78.774 9.76601 82.946C9.52601 83.418 9.28601 83.888 9.04201 84.36C6.90801 88.53 7.78201 93.766 11.096 97.08L15.066 101.048C17.362 103.344 19.322 108.064 19.322 111.328C19.32 136 -17.688 136 -17.688 111.328"
            stroke="#F4F2F7" stroke-width="2" />
    </g>
    <defs>
        <clipPath id="clip0_44_2">
            <rect width="320" height="320" fill="white" />
        </clipPath>
    </defs>
</svg>