<svg width="25px" height="25px" viewBox="0 0 10 10" fill="none" xmlns="http://www.w3.org/2000/svg">
    <path fill-rule="evenodd" clip-rule="evenodd"
        d="M4 0C1.79086 0 0 1.79087 0 4.00003C0 6.20917 1.79087 8.00003 4 8.00003C4.92437 8.00003 5.7755 7.68649 6.45285 7.15996L9.14644 9.85355C9.34171 10.0488 9.65829 10.0488 9.85355 9.85355C10.0488 9.65829 10.0488 9.34171 9.85355 9.14644L7.15996 6.45285C7.6865 5.77551 8.00004 4.92439 8.00004 4.00003C8.00004 1.79087 6.20918 0 4 0ZM1.00001 4.00003C1.00001 2.34315 2.34316 1.00001 4 1.00001C5.65689 1.00001 7.00004 2.34316 7.00004 4.00003C7.00004 5.65688 5.65689 7.00003 4 7.00003C2.34316 7.00003 1.00001 5.65688 1.00001 4.00003Z"
        fill="#843F58" />
</svg>